<?xml version="1.0" encoding="iso-8859-1"?>
<!-- Generator: Adobe Illustrator 19.0.0, SVG Export Plug-In . SVG Version: 6.00 Build 0)  -->
<svg class="send" version="1.1" id="Capa_1" xmlns="http://www.w3.org/2000/svg" xmlns:xlink="http://www.w3.org/1999/xlink" x="0px" y="0px"
	 viewBox="0 0 488 488" style="enable-background:new 0 0 488 488;" xml:space="preserve">
<g>
	<polygon style="fill:#FFF;" points="276,360 20,40 148,488 	"/>
	<polygon style="fill:#FFF;" points="340,328 468,264 20,40 	"/>
</g>
<g>
	<path style="fill:#61CAED;" d="M471.2,224.8l-448-224h-0.8c0,0-0.8-0.8-0.8-0.8C20.8,0,20,0,20,0c-0.8,0-0.8,0-1.6,0
		c-0.8,0-0.8,0-1.6,0.8H16c0,0,0,0-0.8,0l-0.8,0.8l-0.8,0.8l0,0v0.8c0,0.8-0.8,0.8-0.8,1.6c0,0.8,0,0.8,0,1.6C12,7.2,12,8,12,8
		c0,0.8,0,0.8,0,1.6v0.8l128,448c0.8,2.4,3.2,4.8,5.6,5.6c0.8,0,1.6,0,2.4,0c2.4,0,4-0.8,5.6-2.4l88.8-88.8l58.4,88
		c0.8,0.8,0.8,1.6,1.6,1.6c0,0,0,0,0.8,0s0.8,0.8,1.6,0.8h0.8c0.8,0,1.6,0,2.4,0l0,0l0,0c0,0,0,0,0.8,0s1.6,0,1.6,0s0.8,0,0.8-0.8
		c0,0,0.8,0,0.8-0.8l0,0c0.8-0.8,0.8-0.8,1.6-1.6c0,0,0-0.8,0.8-0.8c0.8-0.8,0.8-1.6,0.8-2.4l0,0l31.2-156l124.8-62.4
		c2.4-1.6,4.8-4,4.8-7.2S474.4,226.4,471.2,224.8z M307.2,419.2L284,326.4l0,0c0-0.8-0.8-1.6-0.8-2.4v-0.8l0,0l-196-244l244,219.2
		L307.2,419.2z M152,440.8L38.4,44l226.4,283.2L152,440.8z M272,344l17.6,69.6l-34.4-52L272,344z M341.6,286.4L69.6,41.6L450.4,232
		L341.6,286.4z"/>
</g>
<g>
</g>
<g>
</g>
<g>
</g>
<g>
</g>
<g>
</g>
<g>
</g>
<g>
</g>
<g>
</g>
<g>
</g>
<g>
</g>
<g>
</g>
<g>
</g>
<g>
</g>
<g>
</g>
<g>
</g>
</svg>
